<svg id="Layer_1" data-name="Layer 1" xmlns="http://www.w3.org/2000/svg" viewBox="0 0 1539.53 1071.48"><defs><style>.cls-1{fill:#ffba00;}</style></defs><path class="cls-1" d="M1421.59,596.79h0v-353A66.79,66.79,0,0,1,1488.38,177h0V530A66.79,66.79,0,0,1,1421.59,596.79Z"/><path class="cls-1" d="M1337.94,598.58h-125a66.28,66.28,0,0,1,66.28-66.27h44.57V216.83h66.27V546.45A52.13,52.13,0,0,1,1337.94,598.58Z"/><path class="cls-1" d="M1126.07,598.8H762.45A66.79,66.79,0,0,1,695.66,532h427.41V164a66.79,66.79,0,0,1,66.79-66.8h0V535A63.79,63.79,0,0,1,1126.07,598.8Z"/><path class="cls-1" d="M1055,511.46H988.18V245.26A66.79,66.79,0,0,1,1055,178.47h0Z"/><path class="cls-1" d="M925.83,508.8H695.66A66.79,66.79,0,0,1,762.45,442H859V327.77A66.79,66.79,0,0,1,925.83,261h0Z"/><path class="cls-1" d="M672.49,691.36l-176.78-1.07V594.45a80.72,80.72,0,0,1,80.72-80.72h96.06Zm-110-67.47,43.19.27V580.53H562.51Z"/><path class="cls-1" d="M1390.06,381.22l-176.78-1.08V284.31A80.72,80.72,0,0,1,1294,203.59h96.06Zm-110-67.47,43.19.27V270.39h-43.19Z"/><path class="cls-1" d="M382.62,719.69v66.79l-164,1.67a36.89,36.89,0,0,1-37.18-36.85V631.63h22.26a44.52,44.52,0,0,1,44.53,44.53V721Z"/><polygon class="cls-1" points="460.55 718.79 460.55 785.7 456.32 785.7 449.41 785.81 404.88 786.26 397.87 786.37 393.75 786.37 393.75 719.58 397.87 719.46 404.88 719.35 449.41 719.02 456.32 718.91 460.55 718.79"/><path class="cls-1" d="M1193.83,664.8V700a66.85,66.85,0,0,1-66.79,66.8v-74L672.51,691V743.4a40.53,40.53,0,0,1-40.14,40.52l-160.69,1.56v-66.8l134-1.33V624H1153A40.87,40.87,0,0,1,1193.83,664.8Z"/><path class="cls-1" d="M460.55,691.16H288.66l-.34-96.41a80.71,80.71,0,0,1,80.72-81h91.51Zm-105.33-66.8h39.63l.16-43.83H355.06Z"/><path class="cls-1" d="M460.55,690.74V842.36A43.71,43.71,0,0,1,416.91,886H248.14v50.1a47.32,47.32,0,0,1-47.42,47.42H35.18A35.08,35.08,0,0,1,0,948.46V872.2H22.26a44.51,44.51,0,0,1,44.53,44.53H181.35V867.41a48.31,48.31,0,0,1,48.31-48.2H393.75V690.74Z"/><path class="cls-1" d="M393.75,690.74V819.21H229.66a48.31,48.31,0,0,0-48.31,48.2v49.32H66.79A44.51,44.51,0,0,0,22.26,872.2H0v76.26a35.08,35.08,0,0,0,35.18,35.06H200.72a47.32,47.32,0,0,0,47.42-47.42V886H416.91a43.71,43.71,0,0,0,43.64-43.64V690.74Zm55.66,151.62a32.54,32.54,0,0,1-32.5,32.51H237V936.1a36.3,36.3,0,0,1-36.29,36.29H35.18a24,24,0,0,1-24-23.93V883.33H22.26a33.5,33.5,0,0,1,33.4,33.4v11.13H192.48V867.41a37.16,37.16,0,0,1,37.18-37.07H404.88V701.87h44.53Z"/><path class="cls-1" d="M332.24,431.53h36.45a0,0,0,0,1,0,0V468a24.26,24.26,0,0,1-24.26,24.26H308a0,0,0,0,1,0,0V455.79A24.26,24.26,0,0,1,332.24,431.53Z"/><path class="cls-1" d="M75.86,1010.76h36.45a0,0,0,0,1,0,0v36.45a24.26,24.26,0,0,1-24.26,24.26H51.6a0,0,0,0,1,0,0V1035a24.26,24.26,0,0,1,24.26-24.26Z"/><path class="cls-1" d="M401.33,431.53h36.45A24.26,24.26,0,0,1,462,455.79v36.45a0,0,0,0,1,0,0H425.59A24.26,24.26,0,0,1,401.33,468V431.53A0,0,0,0,1,401.33,431.53Z"/><path class="cls-1" d="M138.71,1010.76h36.45A24.26,24.26,0,0,1,199.42,1035v36.45a0,0,0,0,1,0,0H163a24.26,24.26,0,0,1-24.26-24.26v-36.45a0,0,0,0,1,0,0Z"/><path class="cls-1" d="M833,717.27h40.52a20.2,20.2,0,0,1,20.2,20.2V778a0,0,0,0,1,0,0H853.2a20.2,20.2,0,0,1-20.2-20.2V717.27A0,0,0,0,1,833,717.27Z"/><path class="cls-1" d="M889.33,796.83h40.52a20.2,20.2,0,0,1,20.2,20.2v40.52a0,0,0,0,1,0,0H909.53a20.2,20.2,0,0,1-20.2-20.2V796.83A0,0,0,0,1,889.33,796.83Z" transform="translate(985.1 2062.42) rotate(-135)"/><path class="cls-1" d="M962.58,717.27h40.52a0,0,0,0,1,0,0v40.52A20.2,20.2,0,0,1,982.9,778H942.38a0,0,0,0,1,0,0V737.46A20.2,20.2,0,0,1,962.58,717.27Z" transform="translate(1945.47 1495.25) rotate(-180)"/><path class="cls-1" d="M1426.87,140.05a48.46,48.46,0,0,0-32.93,12.36,34.71,34.71,0,0,1-.58-7.65,32.35,32.35,0,0,1,9.7-23.83,69.78,69.78,0,0,1,22.07-15Q1408.87,93,1408.89,72.38t9.42-30.31A56,56,0,0,1,1440.38,28a132.26,132.26,0,0,1,25.29-6.18q12.66-1.75,18.54-6.47a18.59,18.59,0,0,0,5.3-7.06A32.23,32.23,0,0,0,1491.86,0a52.22,52.22,0,0,1,8.24,9.12,19.47,19.47,0,0,1,3.54,11.48,26.86,26.86,0,0,1-2.07,10.29q-2.07,5-4.41,9.71,10,5.3,10,15.3a28.45,28.45,0,0,1-1.76,10,64.71,64.71,0,0,0-13.08-10,30.51,30.51,0,0,0-15.46-4.11,31.77,31.77,0,0,0-19.62,6.76,21.44,21.44,0,0,0-8.92,18q0,7.65,4.12,12.36a28.08,28.08,0,0,0,10.3,7.35,43.76,43.76,0,0,0,14.12,3.24q7.94.58,15.59.59h25.9l21.18,40Z"/></svg>